<svg xmlns="http://www.w3.org/2000/svg" viewBox="0 0 212.01 57.67"><defs><style>.cls-1{fill:#fcfcfc;}.cls-2{fill:#0af;}.cls-3{fill:#eaeaea;}</style></defs><title>clima</title><g id="Layer_2" data-name="Layer 2"><g id="Layer_1-2" data-name="Layer 1"><path class="cls-1" d="M11.68,38h0Z"/><rect class="cls-1" x="11.48" y="14.67" width="0.02"/><path class="cls-1" d="M62.23,23.87A14.2,14.2,0,0,1,48,38.07a10.94,10.94,0,0,1-1.15,0H11.48a11.68,11.68,0,0,1,0-23.35h0a15.45,15.45,0,0,1,30.27-3.54A14.19,14.19,0,0,1,62.23,23.87Z"/><path class="cls-2" d="M1.82,55.42A1.56,1.56,0,0,1,.71,52.76L21.19,32.28a1.56,1.56,0,1,1,2.2,2.2L2.92,55A1.55,1.55,0,0,1,1.82,55.42Z"/><path class="cls-2" d="M14.88,51.23a1.57,1.57,0,0,1-1.1-2.67L34.25,28.09a1.56,1.56,0,1,1,2.21,2.2L16,50.77A1.56,1.56,0,0,1,14.88,51.23Z"/><path class="cls-2" d="M19,57.67A1.56,1.56,0,0,1,17.91,55L38.39,34.53a1.56,1.56,0,1,1,2.2,2.2L20.11,57.21A1.56,1.56,0,0,1,19,57.67Z"/><path class="cls-3" d="M73.56,6.92h-.07l-3.67,2-.55-2.17,4.61-2.47h2.43V25.35H73.56Z"/><path class="cls-3" d="M84,25.35V23.6l2.24-2.17c5.39-5.13,7.83-7.86,7.86-11,0-2.14-1-4.12-4.19-4.12a7.17,7.17,0,0,0-4.48,1.79l-.91-2a9.28,9.28,0,0,1,6-2.14C95,3.9,97,7,97,10c0,3.89-2.82,7-7.27,11.32L88,22.92V23h9.47v2.36Z"/><path class="cls-3" d="M108.73,7.34a4.31,4.31,0,0,1-4.35,4.35,4.13,4.13,0,0,1-4.25-4.19,4.28,4.28,0,0,1,4.32-4.38A4.15,4.15,0,0,1,108.73,7.34Zm-6.84.16a2.57,2.57,0,0,0,2.53,2.67A2.63,2.63,0,0,0,107,7.37a2.54,2.54,0,0,0-2.56-2.72A2.62,2.62,0,0,0,101.89,7.5Z"/><path class="cls-3" d="M72.1,31.23H69.23v-1h7v1H73.34v8.41H72.1Z"/><path class="cls-3" d="M82.37,36.19A3.31,3.31,0,0,1,79,39.79a3.22,3.22,0,0,1-3.25-3.49,3.32,3.32,0,0,1,3.37-3.6A3.21,3.21,0,0,1,82.37,36.19ZM77,36.26c0,1.49.85,2.61,2.06,2.61s2.06-1.11,2.06-2.64c0-1.14-.58-2.6-2-2.6S77,35,77,36.26Z"/><path class="cls-3" d="M83.92,35c0-.79,0-1.48-.06-2.11h1.08l0,1.33H85a2,2,0,0,1,1.88-1.49,1.23,1.23,0,0,1,.35,0v1.16a1.76,1.76,0,0,0-.42,0,1.74,1.74,0,0,0-1.66,1.58,4.65,4.65,0,0,0,0,.57v3.62H83.92Z"/><path class="cls-3" d="M88.55,34.69c0-.7,0-1.27,0-1.83h1.08l0,1.09h0A2.35,2.35,0,0,1,91.8,32.7a2,2,0,0,1,1.92,1.36h0a2.88,2.88,0,0,1,.76-.88A2.29,2.29,0,0,1,96,32.7c.89,0,2.22.59,2.22,2.95v4H97V35.8c0-1.3-.48-2.09-1.47-2.09a1.6,1.6,0,0,0-1.46,1.12,2.3,2.3,0,0,0-.1.62v4.19H92.8V35.58c0-1.08-.48-1.87-1.42-1.87a1.86,1.86,0,0,0-1.62,1.84v4.09H88.55Z"/><path class="cls-3" d="M100.92,36.47a2.17,2.17,0,0,0,2.32,2.36,4.57,4.57,0,0,0,1.88-.35l.21.88a5.64,5.64,0,0,1-2.26.42,3.15,3.15,0,0,1-3.33-3.42c0-2,1.2-3.66,3.18-3.66,2.21,0,2.8,1.95,2.8,3.2a5.55,5.55,0,0,1,0,.57Zm3.61-.88a1.76,1.76,0,0,0-1.71-2,2,2,0,0,0-1.89,2Z"/><path class="cls-3" d="M107.24,34.69c0-.7,0-1.27,0-1.83h1.09l.07,1.12h0a2.5,2.5,0,0,1,2.24-1.28c.94,0,2.39.57,2.39,2.89v4h-1.23V35.73c0-1.09-.4-2-1.57-2A1.74,1.74,0,0,0,108.56,35a1.64,1.64,0,0,0-.08.57v4.08h-1.24Z"/><path class="cls-3" d="M116.44,30.91v1.95h1.77v.94h-1.77v3.65c0,.84.24,1.32.93,1.32a2.82,2.82,0,0,0,.71-.08l.06.92a3,3,0,0,1-1.1.17,1.71,1.71,0,0,1-1.33-.52,2.51,2.51,0,0,1-.47-1.76V33.8h-1v-.94h1V31.23Z"/><path class="cls-3" d="M123.35,39.64l-.1-.86h0a2.52,2.52,0,0,1-2.08,1,1.93,1.93,0,0,1-2.07-1.94c0-1.64,1.46-2.54,4.08-2.53v-.14a1.4,1.4,0,0,0-1.55-1.56,3.35,3.35,0,0,0-1.76.5l-.28-.81a4.15,4.15,0,0,1,2.23-.61c2.07,0,2.57,1.42,2.57,2.78V38a9,9,0,0,0,.12,1.63Zm-.19-3.46c-1.34,0-2.87.21-2.87,1.53a1.09,1.09,0,0,0,1.16,1.17,1.68,1.68,0,0,0,1.64-1.13,1.11,1.11,0,0,0,.07-.39Z"/><path class="cls-3" d="M126.17,38.38a3.24,3.24,0,0,0,1.63.49c.89,0,1.31-.45,1.31-1s-.35-.91-1.26-1.25c-1.22-.43-1.79-1.1-1.79-1.92a2.09,2.09,0,0,1,2.34-2,3.47,3.47,0,0,1,1.67.42l-.31.9a2.65,2.65,0,0,0-1.39-.39c-.73,0-1.13.42-1.13.92s.4.82,1.28,1.15c1.18.45,1.78,1,1.78,2,0,1.19-.92,2-2.53,2a3.91,3.91,0,0,1-1.91-.46Z"/><path class="cls-3" d="M136.11,30.2v9.44h-1.22V30.2Z"/><path class="cls-3" d="M138.34,34.69c0-.7,0-1.27-.06-1.83h1.09l.07,1.12h0a2.51,2.51,0,0,1,2.24-1.28c.94,0,2.4.57,2.4,2.89v4h-1.23V35.73c0-1.09-.41-2-1.57-2A1.75,1.75,0,0,0,139.65,35a1.91,1.91,0,0,0-.08.57v4.08h-1.23Z"/><path class="cls-3" d="M147.54,30.91v1.95h1.76v.94h-1.76v3.65c0,.84.23,1.32.92,1.32a3,3,0,0,0,.72-.08l0,.92a3,3,0,0,1-1.09.17,1.68,1.68,0,0,1-1.33-.52,2.5,2.5,0,0,1-.48-1.76V33.8h-1.05v-.94h1.05V31.23Z"/><path class="cls-3" d="M151.29,36.47a2.17,2.17,0,0,0,2.32,2.36,4.54,4.54,0,0,0,1.88-.35l.21.88a5.6,5.6,0,0,1-2.26.42,3.15,3.15,0,0,1-3.33-3.42c0-2,1.21-3.66,3.18-3.66,2.21,0,2.8,1.95,2.8,3.2a5.55,5.55,0,0,1,0,.57Zm3.61-.88a1.75,1.75,0,0,0-1.71-2,2,2,0,0,0-1.89,2Z"/><path class="cls-3" d="M157.61,35c0-.79,0-1.48-.05-2.11h1.08l0,1.33h.06a2,2,0,0,1,1.87-1.49,1.23,1.23,0,0,1,.35,0v1.16a1.71,1.71,0,0,0-.42,0,1.73,1.73,0,0,0-1.65,1.58,3.22,3.22,0,0,0-.06.57v3.62h-1.22Z"/><path class="cls-3" d="M162.25,34.69c0-.7,0-1.27-.06-1.83h1.08l.06,1.09h0a2.35,2.35,0,0,1,2.13-1.25,2,2,0,0,1,1.92,1.36h0a2.86,2.86,0,0,1,.75-.88,2.32,2.32,0,0,1,1.5-.48c.9,0,2.23.59,2.23,2.95v4h-1.21V35.8c0-1.3-.47-2.09-1.47-2.09a1.59,1.59,0,0,0-1.45,1.12,2,2,0,0,0-.1.62v4.19h-1.21V35.58c0-1.08-.47-1.87-1.41-1.87a1.85,1.85,0,0,0-1.63,1.84v4.09h-1.2Z"/><path class="cls-3" d="M175.3,31a.77.77,0,0,1-1.53,0,.75.75,0,0,1,.77-.77A.74.74,0,0,1,175.3,31Zm-1.38,8.69V32.86h1.24v6.78Z"/><path class="cls-3" d="M178.69,30.91v1.95h1.76v.94h-1.76v3.65c0,.84.23,1.32.92,1.32a2.82,2.82,0,0,0,.71-.08l.06.92a3,3,0,0,1-1.09.17,1.68,1.68,0,0,1-1.33-.52,2.5,2.5,0,0,1-.48-1.76V33.8h-1v-.94h1V31.23Z"/><path class="cls-3" d="M182.44,36.47a2.17,2.17,0,0,0,2.32,2.36,4.57,4.57,0,0,0,1.88-.35l.21.88a5.64,5.64,0,0,1-2.26.42,3.15,3.15,0,0,1-3.33-3.42c0-2,1.2-3.66,3.18-3.66,2.21,0,2.8,1.95,2.8,3.2a5.55,5.55,0,0,1,0,.57Zm3.61-.88a1.76,1.76,0,0,0-1.71-2,2,2,0,0,0-1.89,2Z"/><path class="cls-3" d="M188.76,34.69c0-.7,0-1.27,0-1.83h1.09l.07,1.12h0a2.5,2.5,0,0,1,2.24-1.28c.94,0,2.4.57,2.4,2.89v4H193.3V35.73c0-1.09-.4-2-1.57-2A1.74,1.74,0,0,0,190.08,35a1.64,1.64,0,0,0-.08.57v4.08h-1.24Z"/><path class="cls-3" d="M198,30.91v1.95h1.77v.94H198v3.65c0,.84.24,1.32.93,1.32a2.82,2.82,0,0,0,.71-.08l.06.92a3,3,0,0,1-1.09.17,1.72,1.72,0,0,1-1.34-.52,2.51,2.51,0,0,1-.47-1.76V33.8h-1v-.94h1V31.23Z"/><path class="cls-3" d="M201.71,36.47A2.18,2.18,0,0,0,204,38.83a4.61,4.61,0,0,0,1.88-.35l.21.88a5.64,5.64,0,0,1-2.26.42,3.14,3.14,0,0,1-3.33-3.42c0-2,1.2-3.66,3.18-3.66,2.21,0,2.8,1.95,2.8,3.2a5.55,5.55,0,0,1,0,.57Zm3.62-.88a1.76,1.76,0,0,0-1.71-2,2,2,0,0,0-1.89,2Z"/><path class="cls-3" d="M207.87,38.38a3.24,3.24,0,0,0,1.63.49c.89,0,1.31-.45,1.31-1s-.35-.91-1.26-1.25c-1.21-.43-1.79-1.1-1.79-1.92a2.09,2.09,0,0,1,2.34-2,3.44,3.44,0,0,1,1.67.42l-.31.9a2.65,2.65,0,0,0-1.39-.39c-.73,0-1.13.42-1.13.92s.4.82,1.29,1.15c1.17.45,1.78,1,1.78,2,0,1.19-.93,2-2.54,2a3.84,3.84,0,0,1-1.9-.46Z"/></g></g></svg>