<svg xmlns="http://www.w3.org/2000/svg" viewBox="0 0 316.54 74.5"><defs><style>.cls-1{fill:#9ce9ef;}.cls-1,.cls-2,.cls-3{stroke:#000;}.cls-2{fill:#f29c9c;}.cls-2,.cls-3,.cls-4{stroke-miterlimit:10;}.cls-3{fill:#fff8f8;}.cls-4{fill:#a0a0f9;stroke:#a0a0f9;}</style></defs><title>logo0</title><g id="Layer_2" data-name="Layer 2"><g id="Layer_1-2" data-name="Layer 1"><path class="cls-1" d="M19.29,56.13a10.3,10.3,0,0,0,6.06-1.85A6.38,6.38,0,0,0,28,48.69,6.57,6.57,0,0,0,25.15,43a27.53,27.53,0,0,0-8.08-3.46,55.26,55.26,0,0,1-7.61-2.57A20.66,20.66,0,0,1,5,34.07Q.73,30.5.73,23A14.34,14.34,0,0,1,5.08,12.56Q9.43,8.17,17,8.17a29.37,29.37,0,0,1,7.57,1.06,28.16,28.16,0,0,0,4.9,1.07c.64,0,1.21-.46,1.71-1.37h.76l.48,13.83h-1.1a42.5,42.5,0,0,0-6.88-9.55,10.91,10.91,0,0,0-7.81-3.6,9.94,9.94,0,0,0-6.55,2,6.46,6.46,0,0,0-2.33,5.21,5.57,5.57,0,0,0,2.78,5,25.18,25.18,0,0,0,6.82,2.84c2.69.73,4.46,1.24,5.3,1.51s1.9.65,3.16,1.13a16.08,16.08,0,0,1,3.08,1.51,21.85,21.85,0,0,1,2.53,2,9.4,9.4,0,0,1,2.09,2.64,15.61,15.61,0,0,1,1.85,7.81q0,7.39-4.62,11.89T18.54,57.56a45.68,45.68,0,0,1-8.94-1q-5-1-5.58-1c-.64,0-1.26.68-1.85,2.05h-1L.52,41.26H1.69a37.66,37.66,0,0,0,7.7,10.41Q14.09,56.13,19.29,56.13Z"/><path class="cls-1" d="M35.39,25.5V24.27H55.87V25.5H51.56l8.22,22.75,7.4-22.75H62.59V24.27h9.24V25.5h-3L58.68,56.88H50.87L38.2,25.5Z"/><path class="cls-1" d="M97.25,20.71l1.92-1.17c.27-1.41-.28-2.12-1.65-2.12q-2.94,0-2.94,4.52a20.62,20.62,0,0,0,.48,4.11q5.2,3.49,5.2,8.94a10.22,10.22,0,0,1-3.76,8.46q-3.78,3-10.21,3a30.15,30.15,0,0,1-5.55-.55c-2,1.28-3,2.24-3,2.87s1.46,1,4.38,1h7q15.54,0,15.55,11.17A11.36,11.36,0,0,1,100,70.48Q95.27,74,85.33,74q-16.92,0-16.92-7.33,0-4,5.27-5.48L77.79,63a14.41,14.41,0,0,0-.54,3.77q0,5.89,8.77,5.89,5.34,0,8.22-2a5.87,5.87,0,0,0,2.87-4.94q0-2.94-1.74-3.93t-7-1H81.77c-3.7,0-6.35-.61-8-1.85a5.56,5.56,0,0,1-2.4-4.55,6.29,6.29,0,0,1,1.72-4.52,31.07,31.07,0,0,1,6.09-4.49Q71.29,43.18,71.29,35A10.34,10.34,0,0,1,75,26.74q3.69-3.15,11.09-3.15a15.76,15.76,0,0,1,7.61,1.71,15.27,15.27,0,0,1-.41-3.36q0-3.84,2-5.55a7,7,0,0,1,4.59-1.71A6,6,0,0,1,104,16a4.61,4.61,0,0,1,1.54,3.66,4.48,4.48,0,0,1-1.23,3.46,4.29,4.29,0,0,1-3,1.13,4.42,4.42,0,0,1-2.88-.92A3.38,3.38,0,0,1,97.25,20.71ZM82.73,33.52v3.7q0,4.59.78,6.23a2.56,2.56,0,0,0,2.4,1.65,2.43,2.43,0,0,0,2.33-1.61q.72-1.62.72-6.61V33.52q0-5.34-.68-7A2.37,2.37,0,0,0,86,24.82a2.61,2.61,0,0,0-2.43,1.75Q82.73,28.31,82.73,33.52Z"/><path class="cls-1" d="M106.29,8.93h35.62l.69,13.56h-1.23q-2.88-6.91-6-9.49c-2.1-1.71-5.19-2.57-9.25-2.57h-2.4V31.6H126a7,7,0,0,0,5.41-2.43,14.06,14.06,0,0,0,3.09-6.54h1V42.9h-1.16q-1.23-5.13-3.32-7.33a7.54,7.54,0,0,0-5.72-2.19h-1.65v22h2.6A15.94,15.94,0,0,0,137,51.6a19.17,19.17,0,0,0,6.06-9.66h1.37l-.55,14.94H106.29V55.37h4V10.43h-4Z"/><path class="cls-1" d="M164.73,40.78h2V35.5q0-6.49-.72-8.73a2.78,2.78,0,0,0-2.77-2.23,4,4,0,0,0-2.23.66A2,2,0,0,0,160,27a6.93,6.93,0,0,0,.41,2.29h1.71a9.62,9.62,0,0,1,.55,3.46A4.46,4.46,0,0,1,161,36.22a6.35,6.35,0,0,1-4.32,1.48q-5.89,0-5.89-5.69,0-8.43,14.32-8.42,8.15,0,11.27,2.77t3.11,10.17V50.44c0,2.37.67,3.56,2,3.56,1.55,0,2.47-2.35,2.74-7l1,.06c-.19,4-.94,6.79-2.26,8.29s-3.5,2.26-6.51,2.26q-8.22,0-9.45-5.07a7.39,7.39,0,0,1-2.68,3.84,9.12,9.12,0,0,1-5.2,1.23Q149,57.56,149,49.27q0-4.86,3.87-6.67T164.73,40.78Zm-2.37,13a1.42,1.42,0,0,0,1.44,1c.71,0,1.37-.58,2-1.74a10.56,10.56,0,0,0,.92-4.83V41.88h-.48c-2.83,0-4.24,2.07-4.24,6.23v1.1A17.15,17.15,0,0,0,162.36,53.8Z"/><path class="cls-1" d="M187.47,57.56V45.3h.82q1.78,6,4.8,8.36a11.71,11.71,0,0,0,7.53,2.4q7,0,7-4.46a3.1,3.1,0,0,0-1.71-2.87,23,23,0,0,0-6.85-2.33,26.69,26.69,0,0,1-7.81-3.29c-2.52-1.65-3.77-4.25-3.77-7.81a11.3,11.3,0,0,1,3.29-8.53,12.07,12.07,0,0,1,8.77-3.18,17,17,0,0,1,6.91,1.57,5.61,5.61,0,0,0,2,.55,1.59,1.59,0,0,0,1.17-.48,8.34,8.34,0,0,0,1.16-1.78h.75V33.93h-.82Q207.2,25,199.87,25a8.29,8.29,0,0,0-4.8,1.13A3.4,3.4,0,0,0,193.5,29a2.47,2.47,0,0,0,.48,1.61c.32.39.57.67.75.85a3.39,3.39,0,0,0,.89.59c.41.2.75.36,1,.47a12.5,12.5,0,0,0,1.27.45,9.62,9.62,0,0,0,1.26.34,52.94,52.94,0,0,1,6.72,2,23.56,23.56,0,0,1,3.9,2.09q3.76,2.61,3.77,8.39t-3.43,8.77q-3.42,3-9.38,3a18.22,18.22,0,0,1-8.22-2,2.6,2.6,0,0,0-1.3-.55c-1,0-2,.84-3,2.53Z"/><path class="cls-1" d="M220.38,53Q216,48.45,216,40.33t5-12.43q5-4.32,12.64-4.31,15.56,0,14.94,15.61H229.19v2.68q0,6.7,1.71,10.13a6.1,6.1,0,0,0,6,3.43q7.95,0,10.41-8.49l1.24.2a14.15,14.15,0,0,1-4.7,7.67q-3.39,2.74-10.17,2.74Q224.81,57.56,220.38,53Zm8.88-15.18h7.05V34.48a29.12,29.12,0,0,0-.65-7.57,2.56,2.56,0,0,0-2.6-2A3.05,3.05,0,0,0,230.18,27c-.62,1.44-.92,3.92-.92,7.44Z"/><circle class="cls-2" cx="277.08" cy="38.53" r="20.7"/><polygon class="cls-3" points="291.43 38.53 268 25.01 268 52.05 291.43 38.53"/><line class="cls-4" x1="268.27" y1="1.32" x2="315.2" y2="46.5"/><rect class="cls-4" x="289.65" y="22.13" width="1.77" height="1.83" transform="translate(71.37 -169.07) rotate(36.7)"/><ellipse class="cls-4" cx="268.53" cy="1.58" rx="1.02" ry="1.08" transform="translate(2.58 38.76) rotate(-8.3)"/><ellipse class="cls-4" cx="315.03" cy="46.39" rx="1.02" ry="1.08" transform="translate(-3.4 45.94) rotate(-8.3)"/></g></g></svg>