<svg xmlns="http://www.w3.org/2000/svg" viewBox="0 0 420.6 263.38"><defs><style>.cls-1{fill:#f29c9c;}.cls-1,.cls-2,.cls-3{stroke:#000;}.cls-1,.cls-2,.cls-4{stroke-miterlimit:10;}.cls-2{fill:#fff8f8;}.cls-3{fill:#9ce9ef;}.cls-4{fill:#a0a0f9;stroke:#a0a0f9;}</style></defs><title>logo</title><g id="Layer_2" data-name="Layer 2"><g id="Layer_1-2" data-name="Layer 1"><circle class="cls-1" cx="334.86" cy="92.72" r="45.3"/><polygon class="cls-2" points="366.24 92.72 315 63.13 315 122.31 366.24 92.72"/><path class="cls-3" d="M54.72,125.36a26.82,26.82,0,0,0,15.79-4.82q6.85-4.82,6.87-14.54T70,91.11q-7.39-5.17-21-9t-19.8-6.69a52.39,52.39,0,0,1-11.69-7.49q-11.06-9.27-11-28.71A37.37,37.37,0,0,1,17.71,11.92Q29,.5,48.66.5A75.82,75.82,0,0,1,68.37,3.26Q78.62,6,81.12,6c1.67,0,3.15-1.19,4.46-3.57h2l1.25,36H85.94Q77.38,23,68,13.61T47.68,4.25q-11,0-17,5.08a16.8,16.8,0,0,0-6.06,13.55,14.54,14.54,0,0,0,7.22,13,65.34,65.34,0,0,0,17.75,7.4q10.53,2.85,13.82,3.92t8.21,2.94a41.92,41.92,0,0,1,8,3.93,56.08,56.08,0,0,1,6.6,5.17,24.72,24.72,0,0,1,5.45,6.87q4.81,8.56,4.81,20.33,0,19.26-12,31T52.76,129.1a118.19,118.19,0,0,1-23.28-2.67Q16.37,123.75,15,123.75c-1.67,0-3.27,1.78-4.82,5.35H7.63L5.85,86.65h3A97.83,97.83,0,0,0,29,113.76Q41.16,125.35,54.72,125.36Z"/><path class="cls-3" d="M96.64,45.63V42.42H150v3.21H138.73l21.41,59.21L179.4,45.63h-12V42.42h24.08v3.21h-7.85l-26.4,81.69H137L104,45.63Z"/><path class="cls-3" d="M257.7,33.14l5-3q1.07-5.53-4.28-5.53-7.68,0-7.67,11.77A53.28,53.28,0,0,0,252,47.05q13.54,9.11,13.55,23.28t-9.81,22q-9.81,7.85-26.57,7.85a77.29,77.29,0,0,1-14.45-1.43q-7.86,5-7.85,7.49t11.42,2.5h18.19q40.49,0,40.49,29.07,0,15.69-12.22,24.88t-38.08,9.19q-44.05,0-44.06-19.09,0-10.33,13.74-14.27l10.7,4.82a36.6,36.6,0,0,0-1.43,9.81q0,15.34,22.83,15.34,13.92,0,21.41-5.17t7.49-12.84q0-7.68-4.55-10.26t-18.11-2.59h-17.3q-14.44,0-20.69-4.81T190.46,121a16.53,16.53,0,0,1,4.46-11.78q4.46-4.72,15.87-11.68-20.68-5.88-20.69-27.11,0-13.38,9.63-21.58t28.9-8.21q11.6,0,19.8,4.46a40.81,40.81,0,0,1-1.07-8.74q0-10,5.35-14.45a18.22,18.22,0,0,1,12-4.46q6.6,0,10.61,3.48a12,12,0,0,1,4,9.55q0,6.06-3.21,9a11.05,11.05,0,0,1-7.76,3A11.45,11.45,0,0,1,260.83,40,8.86,8.86,0,0,1,257.7,33.14ZM219.89,66.5v9.63q0,11.94,2.05,16.23t6.24,4.28q4.2,0,6.07-4.19t1.87-17.21V66.5q0-13.92-1.78-18.29t-6-4.37q-4.19,0-6.33,4.55T219.89,66.5Z"/><path class="cls-3" d="M.5,136.24H93.25L95,171.55H91.82q-7.48-18-15.69-24.7t-24.08-6.69H45.8v55.12h6.07A18.2,18.2,0,0,0,66,188.94q5.7-6.33,8-17h2.67v52.8h-3Q70.42,211.33,65,205.62t-14.89-5.71H45.8v57.26h6.78q16.41,0,27.92-9.81a49.74,49.74,0,0,0,15.78-25.15h3.57l-1.43,38.88H.5v-3.92H11v-117H.5Z"/><path class="cls-3" d="M152.64,219.18h5.18V205.44q0-16.94-1.88-22.74t-7.22-5.8a10.37,10.37,0,0,0-5.8,1.7,5.27,5.27,0,0,0-2.58,4.64,17.69,17.69,0,0,0,1.07,6h4.46a25.39,25.39,0,0,1,1.42,9,11.6,11.6,0,0,1-4.46,9.09,16.58,16.58,0,0,1-11.23,3.84q-15.34,0-15.34-14.8,0-21.94,37.28-21.94,21.22,0,29.34,7.22T191,208.12v36.21q0,9.27,5.18,9.27,6.06,0,7.13-18.37l2.68.18q-.72,15.69-5.89,21.58t-16.94,5.89q-21.4,0-24.62-13.2c-1.55,4.52-3.86,7.84-7,10S144,262.88,138,262.88q-26.4,0-26.4-21.59,0-12.66,10.08-17.39T152.64,219.18Zm-6.15,33.89a3.69,3.69,0,0,0,3.75,2.67c1.84,0,3.56-1.51,5.17-4.55s2.41-7.22,2.41-12.57V222h-1.25q-11.07,0-11.06,16.23v2.86Q145.51,250.39,146.49,253.07Z"/><path class="cls-3" d="M211.86,262.88V231H214q4.63,15.51,12.49,21.76T246.11,259q18.19,0,18.19-11.59a8.07,8.07,0,0,0-4.46-7.49A60,60,0,0,0,242,233.8a69.75,69.75,0,0,1-20.33-8.56q-9.81-6.42-9.81-20.33t8.56-22.21q8.57-8.3,22.83-8.29a44.34,44.34,0,0,1,18,4.1,14.85,14.85,0,0,0,5.17,1.43,4.13,4.13,0,0,0,3-1.25,20.6,20.6,0,0,0,3-4.64h2v27.29h-2.14q-9.1-23.19-28.18-23.19-8.4,0-12.49,2.95a8.8,8.8,0,0,0-4.1,7.4,6.37,6.37,0,0,0,1.25,4.19c.83,1,1.48,1.75,2,2.23a8.82,8.82,0,0,0,2.32,1.51c1.07.54,2,1,2.67,1.25s1.81.69,3.3,1.16a24.42,24.42,0,0,0,3.3.89A136.43,136.43,0,0,1,259.84,205,59.12,59.12,0,0,1,270,210.44q9.81,6.78,9.81,21.85t-8.92,22.83q-8.92,7.75-24.44,7.76a47.3,47.3,0,0,1-21.4-5.18,6.87,6.87,0,0,0-3.39-1.42q-3.93,0-7.67,6.6Z"/><path class="cls-3" d="M297.56,251q-11.51-11.85-11.5-33T299,185.64q12.93-11.23,32.91-11.23,40.49,0,38.88,40.66h-50.3v7q0,17.49,4.46,26.4t15.52,8.92q20.69,0,27.11-22.12l3.21.53q-3.39,12.86-12.22,20t-26.48,7.14Q309.07,262.88,297.56,251Zm23.1-39.5H339v-8.74q0-14.45-1.69-19.71t-6.78-5.26q-5.08,0-7.49,5.61t-2.41,19.36Z"/><line class="cls-4" x1="315.58" y1="11.29" x2="418.26" y2="110.16"/><rect class="cls-4" x="362.35" y="56.82" width="3.86" height="4.01" transform="matrix(0.8, 0.6, -0.6, 0.8, 107.38, -206.06)"/><ellipse class="cls-4" cx="316.15" cy="11.87" rx="2.22" ry="2.36" transform="translate(1.6 45.74) rotate(-8.3)"/><ellipse class="cls-4" cx="417.87" cy="109.92" rx="2.22" ry="2.36" transform="translate(-11.49 61.45) rotate(-8.3)"/></g></g></svg>