<svg xmlns="http://www.w3.org/2000/svg" viewBox="0 0 107.55 99.79"><defs><style>.cls-1{fill:#0a169a;}.cls-2{fill:#009ada;}.cls-3{fill:#fff;}</style></defs><title>mercadoPago</title><g id="Layer_2" data-name="Layer 2"><g id="Layer_1-2" data-name="Layer 1"><path class="cls-1" d="M88,22.3C88,10,72.7,0,53.87,0S19.78,10,19.78,22.3c0,.32,0,1.19,0,1.31,0,13,13.34,23.59,34.1,23.59S88,36.64,88,23.61Z"/><path class="cls-2" d="M86.66,22.29c0,11.58-14.68,21-32.78,21s-32.79-9.39-32.79-21,14.68-21,32.79-21S86.66,10.71,86.66,22.29Z"/><path class="cls-3" d="M43,15.67s-.34.37-.13.65c.52.66,2.12,1,3.73.67A10.62,10.62,0,0,0,50,14.85a13.64,13.64,0,0,1,3.87-2.47,4.41,4.41,0,0,1,2.82-.07,8.48,8.48,0,0,1,2.58,1.5c2.24,1.69,11.26,9.56,12.82,10.92a77.24,77.24,0,0,1,14.41-4.64c-.66-4-3.11-7.74-6.84-10.77-5.2,2.19-11.55,3.32-17.76.29a17.22,17.22,0,0,0-6.71-1.52c-4.92.11-7.06,2.24-9.32,4.5Z"/><path class="cls-3" d="M71.7,25.59c-.1-.1-10.6-9.29-13-11.07a5.77,5.77,0,0,0-2.95-1.4,3.88,3.88,0,0,0-1.4.13,12.67,12.67,0,0,0-3.84,2.29,10.89,10.89,0,0,1-3.75,2.32,6.09,6.09,0,0,1-4.13-.62,1.84,1.84,0,0,1-.68-.76,1.28,1.28,0,0,1,.35-1.37L45.22,12c.33-.34.67-.67,1-1a20.43,20.43,0,0,0-2.64.6,11.35,11.35,0,0,1-3.08.57,29,29,0,0,1-3.15-.49,46.1,46.1,0,0,1-8.36-3c-4.12,3.07-6.87,6.9-7.67,11.13.59.15,1.55.44,1.95.52,9.32,2.08,12.22,4.21,12.75,4.66a3.08,3.08,0,0,1,2.31-1,3.12,3.12,0,0,1,2.53,1.32,3.53,3.53,0,0,1,2.22-.78,4,4,0,0,1,1.33.24,3.07,3.07,0,0,1,1.88,1.69,3.07,3.07,0,0,1,1.29-.28,3.83,3.83,0,0,1,1.55.35A3.32,3.32,0,0,1,51,30.14a2.23,2.23,0,0,1,.37,0,3.69,3.69,0,0,1,3.25,5.44,5.94,5.94,0,0,0,3.21.86,2.05,2.05,0,0,0,1.5-.66c.09-.13.19-.28.1-.39l-2.63-2.92s-.43-.41-.29-.57.42.07.6.23c1.34,1.12,3,2.8,3,2.8s.13.23.74.34a2.72,2.72,0,0,0,2.08-.48,2.87,2.87,0,0,0,.45-.47l0,0a1.39,1.39,0,0,0-.07-1.73l-3.07-3.45s-.44-.4-.29-.57.41.08.61.24c1,.81,2.34,2.19,3.66,3.48a2.51,2.51,0,0,0,3-.1,2.13,2.13,0,0,0,1.09-1.93A2.21,2.21,0,0,0,67.55,29l-4.2-4.22s-.44-.38-.28-.57.41.07.6.23c1.34,1.12,5,4.44,5,4.44a2.58,2.58,0,0,0,2.85-.06,1.91,1.91,0,0,0,.94-1.5A2.21,2.21,0,0,0,71.7,25.59Z"/><path class="cls-3" d="M51.36,30.93a9.68,9.68,0,0,0-1.46.32s0-.29.1-.44.92-2.73-1.17-3.62a2.45,2.45,0,0,0-2.91.43c-.09.09-.13.08-.14,0a2.28,2.28,0,0,0-1.61-2.14,3.14,3.14,0,0,0-3.56,1.27,2.28,2.28,0,1,0-2.26,2.57,2.25,2.25,0,0,0,1.58-.63s0,0,0,.07a3,3,0,0,0,1.88,3.46A2.23,2.23,0,0,0,44,31.85c.18-.13.21-.07.18.1a2.14,2.14,0,0,0,1.61,2.3,2,2,0,0,0,2.39-.44c.2-.19.26-.16.27.13a2.88,2.88,0,1,0,2.88-3Z"/><path class="cls-1" d="M72.11,24.49c-3.24-2.83-10.71-9.33-12.74-10.85a8.87,8.87,0,0,0-2.63-1.53,4.27,4.27,0,0,0-1.3-.2,5.57,5.57,0,0,0-1.65.27,13.56,13.56,0,0,0-3.87,2.46l-.06,0a10.68,10.68,0,0,1-3.31,2.1,5.59,5.59,0,0,1-1.23.14A3.12,3.12,0,0,1,43,16.19c-.06-.07,0-.19.11-.36l0,0L46,12.74c2.23-2.23,4.34-4.33,9.18-4.45h.24A17,17,0,0,1,61.79,9.8a19.7,19.7,0,0,0,8.68,2.08A22.61,22.61,0,0,0,80,9.6c-.37-.31-.75-.62-1.15-.91a21,21,0,0,1-8.37,1.9,18.47,18.47,0,0,1-8.12-2A18.6,18.6,0,0,0,55.42,7h-.27a12,12,0,0,0-7.9,2.8,15.9,15.9,0,0,0-4,.72,10.53,10.53,0,0,1-2.78.54c-.35,0-1,0-1.05,0a54.07,54.07,0,0,1-10-2.77c-.4.29-.8.59-1.18.89a49.15,49.15,0,0,0,10.84,3.13c.44,0,.92.08,1.39.08a11.68,11.68,0,0,0,3.14-.58c.6-.17,1.27-.35,2-.49l-.56.56L42.18,15a1.43,1.43,0,0,0-.4,1.59,2,2,0,0,0,.76.85,6.05,6.05,0,0,0,3.07.78,5.93,5.93,0,0,0,1.22-.13,11,11,0,0,0,3.83-2.36,12.9,12.9,0,0,1,3.77-2.25,4.15,4.15,0,0,1,1-.14h.27a5.65,5.65,0,0,1,2.84,1.36c2.38,1.78,12.88,11,13,11.06a2,2,0,0,1,.63,1.55,1.67,1.67,0,0,1-.84,1.34,2.56,2.56,0,0,1-1.37.43,2.23,2.23,0,0,1-1.22-.36s-3.64-3.33-5-4.44a1.15,1.15,0,0,0-.62-.33.36.36,0,0,0-.28.13c-.21.26,0,.61.3.85l4.2,4.22A2,2,0,0,1,68,30.27,1.9,1.9,0,0,1,67,32a2.69,2.69,0,0,1-1.49.49,2.16,2.16,0,0,1-1.2-.36l-.61-.59c-1.1-1.09-2.24-2.21-3.07-2.9a1.12,1.12,0,0,0-.62-.33.37.37,0,0,0-.27.11c-.09.11-.16.3.08.61a1.64,1.64,0,0,0,.21.24l3.07,3.45a1.18,1.18,0,0,1,.06,1.47l-.1.13a3.76,3.76,0,0,1-.29.28,2.43,2.43,0,0,1-1.5.47,2.54,2.54,0,0,1-.41,0,1.09,1.09,0,0,1-.61-.26l0,0c-.17-.17-1.72-1.75-3-2.81a1,1,0,0,0-.59-.32.36.36,0,0,0-.28.12c-.25.28.13.69.29.84l2.61,2.89a.46.46,0,0,1-.1.17c-.09.13-.41.45-1.35.57a2.11,2.11,0,0,1-.35,0,5.92,5.92,0,0,1-2.56-.76,4,4,0,0,0,.37-1.66,3.91,3.91,0,0,0-3.9-3.9h-.14a3.46,3.46,0,0,0-2-3.66,4.08,4.08,0,0,0-1.63-.36,3.44,3.44,0,0,0-1.2.21,3.25,3.25,0,0,0-1.91-1.62,4.34,4.34,0,0,0-1.4-.24,3.71,3.71,0,0,0-2.18.69,3.34,3.34,0,0,0-2.57-1.24,3.3,3.3,0,0,0-2.33,1C35.21,24,32,22,23.33,20c-.42-.09-1.38-.37-2-.54a11.33,11.33,0,0,0-.22,1.42l1.9.45c8.83,2,11.75,4,12.25,4.39A3.24,3.24,0,0,0,35,27a3.31,3.31,0,0,0,3.31,3.31,3.15,3.15,0,0,0,.61-.06,3.86,3.86,0,0,0,2.49,2.89,3.28,3.28,0,0,0,1.18.22,2.7,2.7,0,0,0,.75-.09,3.48,3.48,0,0,0,2.06,1.92,3.4,3.4,0,0,0,1.3.27,2.91,2.91,0,0,0,1-.18,3.9,3.9,0,0,0,6.4,1.24,7.33,7.33,0,0,0,3.3,1,4,4,0,0,0,.5,0,3,3,0,0,0,2.24-1.1,1,1,0,0,0,.14-.22,3.81,3.81,0,0,0,1.06.16,3.55,3.55,0,0,0,2.14-.76,3,3,0,0,0,1.26-1.83v0a3.36,3.36,0,0,0,.71.08,4,4,0,0,0,2.2-.7,3.17,3.17,0,0,0,1.57-2.82,3.53,3.53,0,0,0,.72.08,3.8,3.8,0,0,0,2.06-.64,3,3,0,0,0,1.43-2.32A3.14,3.14,0,0,0,73,25.5a84.94,84.94,0,0,1,13.63-4.26c0-.48-.11-.95-.19-1.42A77.48,77.48,0,0,0,72.11,24.49Zm-20.75,12a2.65,2.65,0,0,1-2.67-2.55c0-.12,0-.44-.29-.44a.48.48,0,0,0-.33.17,1.88,1.88,0,0,1-1.31.59,2.24,2.24,0,0,1-.86-.19c-1.52-.62-1.54-1.66-1.48-2.08a.37.37,0,0,0-.06-.32l-.09-.09h-.09a.53.53,0,0,0-.27.11,2.21,2.21,0,0,1-1.29.46A2,2,0,0,1,41.9,32a2.79,2.79,0,0,1-1.75-3.24.26.26,0,0,0-.09-.26l-.14-.12-.13.13a2.09,2.09,0,1,1,.61-1.77l.08.56.3-.47a3.07,3.07,0,0,1,2.43-1.33,2.93,2.93,0,0,1,.9.15,2.09,2.09,0,0,1,1.47,2c0,.27.22.28.25.28a.36.36,0,0,0,.25-.13,2.09,2.09,0,0,1,1.53-.64,2.73,2.73,0,0,1,1.14.26c2,.84,1.07,3.33,1.06,3.35-.16.41-.17.6,0,.7l.07,0h.06a1.42,1.42,0,0,0,.38-.1,3.46,3.46,0,0,1,1-.23h0a2.67,2.67,0,0,1,0,5.34Z"/><path class="cls-1" d="M105.7,60.52a6.75,6.75,0,0,0-5.61-2.31,6.74,6.74,0,0,0-5.6,2.31,9,9,0,0,0,0,10.95,6.78,6.78,0,0,0,5.6,2.28,6.79,6.79,0,0,0,5.61-2.28,9,9,0,0,0,0-10.95Zm-3,8.84a3.37,3.37,0,0,1-5.14,0,5.51,5.51,0,0,1-.9-3.38,5.47,5.47,0,0,1,.9-3.37,3.39,3.39,0,0,1,5.14,0,5.47,5.47,0,0,1,.9,3.37A5.51,5.51,0,0,1,102.65,69.36Z"/><path class="cls-1" d="M74.25,59.23A9.41,9.41,0,0,0,70,58.28q-3.7,0-5.23,1.93a5.63,5.63,0,0,0-1.08,3.15h3.69A2.89,2.89,0,0,1,67.89,62a2.42,2.42,0,0,1,1.94-.67,4,4,0,0,1,1.86.34,1.29,1.29,0,0,1,.63,1.24A1.14,1.14,0,0,1,71.5,64a6.32,6.32,0,0,1-1.53.34l-1.31.16a9.17,9.17,0,0,0-3.38.94,4.15,4.15,0,0,0-2.1,3.9,4,4,0,0,0,1.31,3.21,5.13,5.13,0,0,0,3.3,1.14c8.35.37,8.25-4.4,8.33-5.39V62.83A3.67,3.67,0,0,0,74.25,59.23Zm-1.94,8.33a3.08,3.08,0,0,1-1.1,2.65,4,4,0,0,1-2.31.72,2.17,2.17,0,0,1-1.34-.43A1.71,1.71,0,0,1,67,69.08a1.74,1.74,0,0,1,.9-1.62,5.6,5.6,0,0,1,1.76-.53l.87-.16a6.59,6.59,0,0,0,1-.26,4.26,4.26,0,0,0,.74-.37Z"/><path class="cls-1" d="M55.21,61.55a2.49,2.49,0,0,1,2.11.88,3.37,3.37,0,0,1,.58,1.47H62a5.7,5.7,0,0,0-2.18-4.35,8.47,8.47,0,0,0-4.74-1.23,6.93,6.93,0,0,0-5.34,2.09,8.26,8.26,0,0,0-1.93,5.84,8.11,8.11,0,0,0,1.75,5.41q1.76,2.09,5.46,2.09a6.61,6.61,0,0,0,5.61-2.5A6.16,6.16,0,0,0,62,68h-4.1a3.42,3.42,0,0,1-.72,1.87,2.48,2.48,0,0,1-2,.72,2.67,2.67,0,0,1-2.71-1.82,6.82,6.82,0,0,1-.4-2.57,7.46,7.46,0,0,1,.4-2.7A2.77,2.77,0,0,1,55.21,61.55Z"/><path class="cls-1" d="M46.72,58.32c-8.45,0-7.95,7.49-7.95,7.49v7.61H42.6V66.29a5.91,5.91,0,0,1,.44-2.6,3.17,3.17,0,0,1,3.1-1.5l.45,0a5.27,5.27,0,0,1,.64,0V58.35l-.32,0Z"/><path class="cls-1" d="M32.62,69.45a2.94,2.94,0,0,1-.52.58,3.32,3.32,0,0,1-2.15.58,3.68,3.68,0,0,1-2-.49,3.47,3.47,0,0,1-1.56-3.05H37a20,20,0,0,0-.13-2.89,7.36,7.36,0,0,0-1.16-3A6,6,0,0,0,33.17,59a8.4,8.4,0,0,0-3.43-.68,7.07,7.07,0,0,0-5.22,2,7.94,7.94,0,0,0-2,5.81c0,2.7.75,4.65,2.23,5.84a7.94,7.94,0,0,0,5.14,1.8,7.06,7.06,0,0,0,5.48-2.13,5.1,5.1,0,0,0,1.33-2.21ZM27.46,62.3a3,3,0,0,1,2.28-.83,3.36,3.36,0,0,1,2.26.78,3.21,3.21,0,0,1,1,2.31H26.45A4,4,0,0,1,27.46,62.3Z"/><path class="cls-1" d="M21,73.42h-3.5V64.59a2.46,2.46,0,0,0-2.58-2.72,2.58,2.58,0,0,0-2.66,2.72v8.83H8.72V64.59a2.44,2.44,0,0,0-2.55-2.72,2.57,2.57,0,0,0-2.66,2.72v8.83H0V64.68C0,61,2.42,58.27,6.17,58.27a5.39,5.39,0,0,1,4.36,2,5.55,5.55,0,0,1,4.36-2c3.82,0,6.08,2.65,6.08,6.41Z"/><path class="cls-1" d="M91.5,53.71s-3.86-.41-3.86,2.7v4.11A4.45,4.45,0,0,0,86,58.91a4.66,4.66,0,0,0-2.35-.59A5.62,5.62,0,0,0,79,60.46a9.43,9.43,0,0,0-1.72,6A7.93,7.93,0,0,0,79,71.74c1.16,1.38,3.45,2,5.47,2,7.07,0,7-6.06,7-6.06ZM86.9,69.39a2.81,2.81,0,0,1-2.46,1.21A2.72,2.72,0,0,1,82,69.39a6.2,6.2,0,0,1-.79-3.33A5.87,5.87,0,0,1,82,62.92a2.68,2.68,0,0,1,2.45-1.26,2.93,2.93,0,0,1,1.93.69,5,5,0,0,1,1.35,3.93A5.31,5.31,0,0,1,86.9,69.39Z"/><path class="cls-2" d="M27.94,96.63A1.82,1.82,0,0,1,27.37,98a1.87,1.87,0,0,1-1.36.55H24.09V85.16a6.15,6.15,0,0,1,2.32-5.32,7.7,7.7,0,0,1,5-1.42,6.71,6.71,0,0,1,5,2.08,8.19,8.19,0,0,1,1.81,5.56,9,9,0,0,1-1.7,5.69,5.32,5.32,0,0,1-4.35,2.11,5.77,5.77,0,0,1-2.49-.5,4.16,4.16,0,0,1-1.8-1.73Zm6.44-10.41a5.59,5.59,0,0,0-.85-3.34,2.82,2.82,0,0,0-2.43-1.17,2.78,2.78,0,0,0-2.38,1.17,5.69,5.69,0,0,0-.78,3.34,5,5,0,0,0,.84,3.18,2.84,2.84,0,0,0,2.43,1.18,2.73,2.73,0,0,0,2.32-1.18,5.26,5.26,0,0,0,.85-3.18"/><path class="cls-2" d="M63.76,92.63v-.94a4.27,4.27,0,0,1-2.7,2,5.51,5.51,0,0,1-3.35-.28,6.25,6.25,0,0,1-2.87-2.48,8.6,8.6,0,0,1-1.19-4.77,9.24,9.24,0,0,1,1.58-5.6c1.06-1.43,2.75-2.08,5.08-2.14a7,7,0,0,1,4.94,1.45c1.43,1.08,2.28,2.75,2.28,5.35V93c0,2.5-1.74,7.13-7.22,6.74C56.92,99.52,55,98.13,54,95H58a2.8,2.8,0,0,0,1.36,1.19,2.86,2.86,0,0,0,1.83.23,3.08,3.08,0,0,0,1.67-1.09,4.65,4.65,0,0,0,.86-2.68m-6.33-6.4q0,3.84,2.22,4.26a3,3,0,0,0,3.27-1,4,4,0,0,0,.72-1.92,8,8,0,0,0,0-2.59,5.19,5.19,0,0,0-.91-2.29,2.44,2.44,0,0,0-2.11-1,2.57,2.57,0,0,0-2.56,1.4,7.35,7.35,0,0,0-.66,3.18"/><path class="cls-2" d="M50.36,79.43a9.28,9.28,0,0,0-4.29-1q-3.7,0-5.24,1.94a5.59,5.59,0,0,0-1.08,3.16h3.7A2.69,2.69,0,0,1,44,82.22a2.46,2.46,0,0,1,1.94-.67,4,4,0,0,1,1.86.35,1.28,1.28,0,0,1,.64,1.24,1.17,1.17,0,0,1-.83,1.09,6.42,6.42,0,0,1-1.53.33l-1.31.16a9.41,9.41,0,0,0-3.39,1,4.16,4.16,0,0,0-2.1,3.91,4.06,4.06,0,0,0,1.31,3.22,5.2,5.2,0,0,0,3.3,1.13c8.37.38,8.27-4.4,8.35-5.4V83a3.66,3.66,0,0,0-1.88-3.6m-1.94,8.35a3,3,0,0,1-1.1,2.64,3.94,3.94,0,0,1-2.31.73,2.08,2.08,0,0,1-1.34-.44,1.69,1.69,0,0,1-.56-1.42A1.74,1.74,0,0,1,44,87.67a5.56,5.56,0,0,1,1.76-.52l.87-.17a6.59,6.59,0,0,0,1-.26,3.93,3.93,0,0,0,.74-.37Z"/><path class="cls-2" d="M82.07,80.64a6.72,6.72,0,0,0-5.61-2.32,6.76,6.76,0,0,0-5.62,2.32,9.06,9.06,0,0,0,0,11,6.82,6.82,0,0,0,5.62,2.28,6.79,6.79,0,0,0,5.61-2.28,9.06,9.06,0,0,0,0-11M79,89.5a3.38,3.38,0,0,1-5.15,0A5.45,5.45,0,0,1,73,86.11a5.39,5.39,0,0,1,.91-3.37,3.38,3.38,0,0,1,5.15,0,5.45,5.45,0,0,1,.9,3.37A5.52,5.52,0,0,1,79,89.5"/></g></g></svg>